<?xml version="1.0" standalone="no"?>
<!DOCTYPE svg PUBLIC "-//W3C//DTD SVG 20010904//EN"
 "http://www.w3.org/TR/2001/REC-SVG-20010904/DTD/svg10.dtd">
<svg version="1.0" xmlns="http://www.w3.org/2000/svg"
 width="1150.000000pt" height="522.000000pt" viewBox="0 0 1150.000000 522.000000"
 preserveAspectRatio="xMidYMid meet">
<metadata>
Created by potrace 1.16, written by Peter Selinger 2001-2019
</metadata>
<g transform="translate(0.000000,522.000000) scale(0.100000,-0.100000)"
fill="#000000" stroke="none">
<path d="M2582 4968 c-33 -42 -2562 -4692 -2562 -4713 l0 -25 330 0 330 0 20
32 c11 18 217 394 457 835 l438 802 3 -575 2 -574 330 0 330 0 0 559 0 560
488 4 c522 4 534 5 684 60 112 41 206 103 303 201 157 158 238 335 276 595 19
134 7 403 -24 521 -90 344 -311 553 -672 632 -72 16 -142 21 -353 25 -202 4
-262 8 -259 18 3 6 131 243 285 525 155 283 278 518 276 522 -3 4 -155 8 -338
8 -255 0 -336 -3 -344 -12z m416 -1618 c135 -22 230 -76 290 -164 53 -80 67
-142 67 -301 -1 -122 -4 -147 -24 -198 -59 -150 -171 -231 -355 -256 -43 -6
-221 -11 -397 -11 l-319 0 0 348 0 348 66 122 66 122 271 0 c150 0 300 -5 335
-10z"/>
<path d="M7210 3954 c-14 -2 -70 -11 -125 -20 -241 -38 -440 -132 -593 -278
-173 -165 -254 -380 -254 -671 1 -354 125 -565 416 -705 150 -72 264 -103 656
-181 195 -38 395 -81 444 -95 244 -69 356 -161 392 -323 50 -220 -78 -397
-341 -473 -72 -20 -101 -23 -280 -23 -229 0 -285 10 -421 76 -61 30 -98 57
-143 104 -71 74 -106 142 -129 255 l-17 80 -319 0 -319 0 7 -71 c15 -168 69
-338 148 -474 57 -97 219 -256 323 -316 137 -80 277 -130 468 -166 133 -25
600 -26 737 0 288 53 505 156 664 314 193 192 278 434 263 746 -17 336 -147
543 -432 685 -147 73 -250 100 -725 193 -173 33 -358 74 -413 90 -264 79 -352
169 -350 357 2 177 137 312 359 358 100 21 347 15 444 -11 217 -57 348 -192
382 -392 l12 -73 308 0 308 0 0 25 c0 138 -47 339 -106 458 -115 230 -276 358
-573 457 -179 60 -262 72 -531 75 -129 2 -246 1 -260 -1z"/>
<path d="M9870 3954 c-14 -2 -70 -11 -125 -20 -241 -38 -440 -132 -593 -278
-173 -165 -254 -380 -254 -671 1 -354 125 -565 416 -705 150 -72 264 -103 656
-181 195 -38 395 -81 444 -95 244 -69 356 -161 392 -323 50 -220 -78 -397
-341 -473 -72 -20 -101 -23 -280 -23 -229 0 -285 10 -421 76 -61 30 -98 57
-143 104 -71 74 -106 142 -129 255 l-17 80 -319 0 -319 0 7 -71 c15 -168 69
-338 148 -474 57 -97 219 -256 323 -316 137 -80 277 -130 468 -166 133 -25
600 -26 737 0 288 53 505 156 664 314 193 192 278 434 263 746 -17 336 -147
543 -432 685 -147 73 -250 100 -725 193 -173 33 -358 74 -413 90 -264 79 -352
169 -350 357 2 177 137 312 359 358 100 21 347 15 444 -11 217 -57 348 -192
382 -392 l12 -73 308 0 308 0 0 25 c0 138 -47 339 -106 458 -115 230 -276 358
-573 457 -179 60 -262 72 -531 75 -129 2 -246 1 -260 -1z"/>
<path d="M4545 3898 c-60 -167 -1115 -3141 -1115 -3144 0 -2 152 -3 337 -2
l336 3 105 313 104 312 587 0 587 0 103 -315 102 -315 341 0 c320 0 340 1 333
17 -3 10 -243 702 -532 1538 -289 836 -532 1539 -540 1563 l-15 42 -364 0
c-283 0 -366 -3 -369 -12z m558 -1361 c108 -326 197 -596 197 -600 0 -4 -180
-7 -401 -7 -316 0 -400 3 -396 13 2 6 91 276 198 600 106 323 196 587 199 587
3 0 94 -267 203 -593z"/>
</g>
</svg>
